<?xml version="1.0" encoding="utf-8"?>
<svg viewBox="570.4000244140625 653.7000122070312 265.60003662109375 265.49993896484375" width="265.60003662109375" height="265.49993896484375" xmlns="http://www.w3.org/2000/svg"><path fill="#414042" d="M703.2,653.7c-73.2,0-132.8,59.6-132.8,132.7c0,73.2,59.6,132.8,132.8,132.8s132.8-59.6,132.8-132.8&#10;&#9;&#9;C835.9,713.3,776.4,653.7,703.2,653.7z M825.8,784.5h-18.2c-1.1-56-46.4-101.3-102.4-102.4v-18.2&#10;&#9;&#9;C771.2,665,824.7,718.5,825.8,784.5z M701.2,776.6c-4,0.8-7.1,3.9-7.9,7.9H679c1-11.8,10.4-21.2,22.1-22.1V776.6z M693.3,788.5&#10;&#9;&#9;c0.8,4,3.9,7.1,7.9,7.9v14.3c-11.8-1-21.2-10.4-22.1-22.1H693.3z M705.2,796.4c4-0.8,7.1-3.9,7.9-7.9h14.3&#10;&#9;&#9;c-1,11.8-10.4,21.2-22.1,22.1V796.4z M713.1,784.5c-0.8-4-3.9-7.1-7.9-7.9v-14.3c11.8,1,21.2,10.4,22.1,22.1H713.1z M701.2,758.3&#10;&#9;&#9;c-14,1-25.2,12.2-26.2,26.2h-20.3c1-25.1,21.3-45.4,46.4-46.5V758.3z M675,788.5c1,14,12.2,25.2,26.2,26.2V835&#10;&#9;&#9;c-25.1-1-45.4-21.3-46.4-46.4H675z M705.2,814.7c14-1,25.2-12.2,26.2-26.2h20.3c-1,25.1-21.3,45.4-46.4,46.4V814.7z M731.4,784.5&#10;&#9;&#9;c-1-14-12.2-25.2-26.2-26.2V738c25.1,1,45.4,21.3,46.4,46.5H731.4z M701.2,734c-27.4,1-49.5,23.1-50.5,50.5h-21.6&#10;&#9;&#9;c1.1-39.3,32.8-71,72.1-72.1V734z M650.7,788.5c1,27.4,23.1,49.4,50.5,50.5v21.6c-39.3-1.1-71-32.8-72.1-72H650.7z M705.2,839&#10;&#9;&#9;c27.4-1,49.4-23.1,50.5-50.5h21.6c-1.1,39.3-32.8,71-72.1,72V839z M755.7,784.5c-1-27.4-23.1-49.5-50.5-50.5v-21.6&#10;&#9;&#9;c39.3,1.1,71,32.8,72.1,72.1H755.7z M701.2,708.4c-41.5,1.1-75,34.6-76.1,76.1h-22.2c1.1-53.8,44.6-97.3,98.3-98.3V708.4z&#10;&#9;&#9; M625.1,788.5c1.1,41.5,34.6,75,76.1,76.1v22.2c-53.8-1.1-97.3-44.6-98.3-98.3H625.1z M705.2,864.6c41.5-1.1,75-34.6,76.1-76.1&#10;&#9;&#9;h22.2c-1.1,53.8-44.6,97.3-98.3,98.3V864.6z M781.3,784.5c-1.1-41.5-34.6-75-76.1-76.1v-22.2c53.8,1.1,97.3,44.6,98.3,98.3H781.3z&#10;&#9;&#9; M701.2,663.9v18.2c-56,1.1-101.3,46.4-102.4,102.4h-18.2C581.7,718.5,635.1,665,701.2,663.9z M580.6,788.5h18.2&#10;&#9;&#9;c1.1,56,46.4,101.3,102.4,102.4v18.2C635.1,908,581.7,854.5,580.6,788.5z M705.2,909.1v-18.2c56-1.1,101.3-46.4,102.4-102.4h18.2&#10;&#9;&#9;C824.7,854.5,771.2,908,705.2,909.1z" transform="matrix(1, 0, 0, 1, 0, 0)" style="fill: rgb(204, 204, 204); opacity: 1;"/></svg>